<mxfile host="app.diagrams.net" agent="Mozilla/5.0 (Windows NT 10.0; Win64; x64) AppleWebKit/537.36 (KHTML, like Gecko) Chrome/134.0.0.0 Safari/537.36" version="26.2.4">
  <diagram name="第 1 页" id="wmVnUr1rWgvGM_dl43qw">
    <mxGraphModel dx="803" dy="464" grid="1" gridSize="10" guides="1" tooltips="1" connect="1" arrows="1" fold="1" page="1" pageScale="1" pageWidth="827" pageHeight="1169" math="0" shadow="0" adaptiveColors="auto">
      <root>
        <mxCell id="0" />
        <mxCell id="1" parent="0" />
        <mxCell id="1Eo275UsJVI7hxTcHDXu-4" style="edgeStyle=orthogonalEdgeStyle;rounded=0;orthogonalLoop=1;jettySize=auto;html=1;strokeColor=light-dark(#000000,#2566A8);fontColor=#143642;fillColor=#FAE5C7;" parent="1" edge="1">
          <mxGeometry relative="1" as="geometry">
            <mxPoint x="430" y="188.08" as="targetPoint" />
            <mxPoint x="330" y="188.08" as="sourcePoint" />
          </mxGeometry>
        </mxCell>
        <mxCell id="1Eo275UsJVI7hxTcHDXu-3" value="" style="outlineConnect=0;dashed=0;verticalLabelPosition=bottom;verticalAlign=top;align=center;html=1;shape=mxgraph.aws3.android;fillColor=#4090D7;gradientColor=none;strokeColor=#0F8B8D;fontColor=#143642;" parent="1" vertex="1">
          <mxGeometry x="225" y="139" width="80" height="80" as="geometry" />
        </mxCell>
        <mxCell id="1Eo275UsJVI7hxTcHDXu-5" value="&lt;font face=&quot;Times New Roman&quot; style=&quot;color: rgb(0, 0, 0);&quot;&gt;&lt;b style=&quot;&quot;&gt;&lt;i&gt;1. Start the SUT (&lt;/i&gt;S&lt;i&gt;ystem &lt;/i&gt;U&lt;i&gt;nder &lt;/i&gt;T&lt;i&gt;est)&lt;/i&gt;&lt;/b&gt;&lt;/font&gt;" style="text;html=1;align=center;verticalAlign=middle;resizable=0;points=[];autosize=1;strokeColor=none;fillColor=none;fontColor=#143642;" parent="1" vertex="1">
          <mxGeometry x="160" y="230" width="210" height="30" as="geometry" />
        </mxCell>
        <mxCell id="1Eo275UsJVI7hxTcHDXu-13" value="" style="group" parent="1" vertex="1" connectable="0">
          <mxGeometry x="340" y="30" width="80" height="80" as="geometry" />
        </mxCell>
        <mxCell id="1Eo275UsJVI7hxTcHDXu-17" value="" style="group" parent="1Eo275UsJVI7hxTcHDXu-13" vertex="1" connectable="0">
          <mxGeometry x="-6" width="80" height="79.53292626559953" as="geometry" />
        </mxCell>
        <mxCell id="1Eo275UsJVI7hxTcHDXu-6" value="" style="whiteSpace=wrap;html=1;aspect=fixed;strokeColor=#0F8B8D;fontColor=#143642;fillColor=#FAE5C7;" parent="1Eo275UsJVI7hxTcHDXu-17" vertex="1">
          <mxGeometry x="17.1007371007371" y="16.633663366336634" width="62.899262899262894" height="62.899262899262894" as="geometry" />
        </mxCell>
        <mxCell id="1Eo275UsJVI7hxTcHDXu-8" value="" style="whiteSpace=wrap;html=1;aspect=fixed;fillColor=#b1ddf0;strokeColor=#10739e;" parent="1Eo275UsJVI7hxTcHDXu-17" vertex="1">
          <mxGeometry x="7.863999999999999" y="8.712" width="63.288" height="63.288" as="geometry" />
        </mxCell>
        <mxCell id="1Eo275UsJVI7hxTcHDXu-9" value="&lt;font face=&quot;Times New Roman&quot;&gt;Fuzz Test Cases&lt;/font&gt;" style="whiteSpace=wrap;html=1;aspect=fixed;strokeColor=#6c8ebf;fillColor=#dae8fc;" parent="1Eo275UsJVI7hxTcHDXu-17" vertex="1">
          <mxGeometry width="62.899262899262894" height="62.899262899262894" as="geometry" />
        </mxCell>
        <mxCell id="1Eo275UsJVI7hxTcHDXu-22" value="&lt;font face=&quot;Times New Roman&quot; style=&quot;color: rgb(0, 0, 0);&quot;&gt;&lt;i&gt;Inject&lt;/i&gt;&lt;/font&gt;" style="text;html=1;align=center;verticalAlign=middle;resizable=0;points=[];autosize=1;strokeColor=none;fillColor=none;fontColor=#143642;" parent="1" vertex="1">
          <mxGeometry x="380" y="128" width="50" height="30" as="geometry" />
        </mxCell>
        <mxCell id="1Eo275UsJVI7hxTcHDXu-23" value="" style="shape=image;verticalLabelPosition=bottom;labelBackgroundColor=default;verticalAlign=top;aspect=fixed;imageAspect=0;image=data:image/png,iVBORw0KGgoAAAANSUhEUgAAAMgAAADICAYAAACtWK6eAAAAAXNSR0IArs4c6QAAD2lJREFUeF7tXQuS6DQODCdh9yQsJ2E5CXCSXU4CnITlJEA/RmwIsfWxHctxp2pq3quxY6mltuRvPjv4EAEiUETgM2JDBIhAGQEShN5BBCoIkCB0DyJAgtAHiEAMAUaQGG6stQkCJMgmhqaaMQRIkBhurLUJAiTIJoammjEESJAYbqy1CQIkyCaGppoxBEiQGG6stQkCJMgmhqaaMQRIkBhurLUJAiTIJoammjEESJAYbqy1CQIkyCaGppoxBEiQGG6stQkCJMgmhqaaMQRIkBhurLUJAiTIJoammjEESJAYbqy1CQIkyCaGppoxBEiQGG6stQkCJMgmhqaaMQSeJMi/j+P4x3Ecn3+Iin/z2QOBnz7U/O9xHP9bSeXRBPnXcRxfHceB3yTESp4xTlaQ5LtViDKKICDDfz6IMQ5qvnlVBBBFvlyBJCMI8u1xHN+sajnK/SgCX/+eWSCipH16E+QHRo20ts4q2D8zR5JeBGFKldX98suVOt3qRRBGjvyOmFlCDNqRmqd7ehCE5Ehn1iUFSplqtRKEA/IlfTGl0D9+zGylEq6FIBh3/JxKGwqzOgLpokgLQZhare6O+eTHlC+mftM8UYK0RA+A8Evmqb001llbEPgIdlF4d1CkiiJRgkTGHul6h7X9bwnpQQ5kGh6SvIIgvzrNk37F1KkPi9sRwD48bDuykiSVr0QiiDe9YuSwO9NbS3rGq6n8JUIQbFtHj2B9Im1Y381yayAAf4HfWJ5U070R5/WMP7CNADkln70R8HSqWxEklbJ7++hU7T0ESdWpjo4gJMhUv0zTOAlSMAUJksZHpwpCgpAgUx0we+MkCAmS3UenykeCkCBTHTB74yQICZLdR6fKR4KQIFMdMHvjJAgJkt1Hp8pHgpAgUx0we+MkCAmS3UenykeCkCBTHTB74yQICZLdR6fKR4KQIFMdMHvjJAgJkt1Hp8pHgpAgUx0we+MkCAmS3UenykeCkCBTHTB74yQICZLdR6fKR4KQIFMdMHvjJAgJkt1Hp8pHgpAgUx0we+MkCAmS3UenykeCkCBTHTB74yQICZLdR6fKR4KQIFMdMHvjJAgJkt1Hp8pHgpAgUx0we+MkCAmS3UenykeCkCBTHTB74yQICZLdR6fKR4KQIFMdMHvjJAgJkt1Hp8uHbxXi54uP7xWWvlnI74NMNxUFyICAEOb6qWgSJIN1KEMqBEAWEAW/8aT5bB+/MJXKTyjMB0nw4aUUDwmSwgxLCoGBN8YTeNDzY0whjv3T7//H55yRLi39kCBLm2+K8CADPutcGmSfhfpudaKQIFN8bNlGPd87FyURVb5eNZqQIMv66uOC/3AaREcax8B7uZSLBImYer863x7H8U2j2iDHl6uRhARptPoG1THW+LmTnhiTgGzLPCTIMqaaJijIYRmQWwVEFEkzjasJTYJoCO39d0v0QOr0/QdMmPaVxb4ScktFERJkPwJg/QJOLT81BODsGJyXHqx1YIbq/GjTwIgeiCKWRyLXtME9CWIx09plzts4rqmSpDro1e/SntrgvLZnShvUl/xOFh9l4VGQF9kQqfDvxwhDgqzt/Jr0nqnZu0W92vijFgm0yHOd8gVxscaipWfQF+RA1HpkHEOCaC625t81By1pBecDUTCWQG9ee1oIgveiPtqCrJEpZKR3qD80mpAgaxKgJrXncFKr9iX/0VKs1nbPqZd1PBNqkwQJwZa2kmXWqafwswkCXYbOipEgPd1l/rs8Y45WaWuD9CejGPQYto2FBGl1kzz1n44e2oJf7wXG6HioyUIkSBN8qSpb8n6Z/QGZ5ASfd5XcOovkmZm6A1IG4CKrJueQKEKCpPLxJmG09Oqux7eQSoTCrJGsQ3gEPV/WYJ3GvdvUqG21J0E8Vtmw7K8VnWsD2RpJZCq215pDbdFSxC+lbogg6ARKkQTRESTu+jCCdIVz2su08Yc203PtnXsT4woM5MXax3XFXHPy2rjmbttLs0FIkGYI07yg5jya40EJSX8se7R6Kn0+z64t+tWiJAnS0yovfFdtDLLkYaWLjVqjZMjkjCAh2FJW0gaxj2zNGISMNv5As9q0c0g0EiQEW8pKlsW5FSOJdV9ZxJdVQ0Ze6pka9Oz9V4VlARUBy+LcSiSxkkObhFCBKxUgQcLQpayoHVYSoS2D9gwKams7ImPEj036RV7MCGKCdlohi31WIYglIg4Ze7Qwz2IAeT9TrOd5os32QKIeq85o57yO8fmHqrh2FGlcj8VFy8TD9chvV8QZQbrCmeJlWgfW+nkBvN9yOYOQpOVQk2XioQfZi4YjQVL4dFchaotpaCiaXlnHN1dl5NaT6H1YWpoV1ccEOgligil1IbnoACmP/JQEjkYPLSpZAIrOnmlRRFb+kdrJhQ7airxF3k9lSBAzVOkKwnGwn0nbBn4WPNLbWmeSLABZt8pf36VFkWv5brfKP0EQCMvHh4C2HyritJHo0SNy3KVc3jt6I3J0uVV+NEF8bsHSgkBp4avlEJJ3Mc26SBexmpeslpm5khyRqPnnu0iQiHnH1ykZNRI5RFrveoEnrZGIZzkQ9YQ8VwuFZ7pIkPHOHmmh9fTfXVrj+TCmNjAuRToZD1kugfNGkUiapUVk1TYkiArRlAJXgrSkGFDAm2Zo0UPL7yGvTCLUABwZ1e4G7u6pZhJkiv+rjV5TAmvviS3t5+ne6DlybS3FmrL0XgmXMdh5Ohtk1aa3AXhoVwcJovrqlAJXu2hjj5DxC5pp6ZUnGmnnOLxpVs0Y6ERwU0tt2ttKbA7Sp7i9vdErQWo9ek8ng4RatPI6WS2KZJd9+EKh3SVY8oyAhyDe6VsNaS0t8mYdvQmnyV/rTDzR71M7XmUtPYymAP+uI+AhiNvoSvO1dC6SymkpmzciaehFrz+6fS8JosE95+9Xuzx53U30ozklpLQIEvHBUlvabJ+7M4kIpyl8Fb7HuYA5bjqv1euV/tq0a89eWLOvd2q2d8pWs4o2meGVfXiKFQnJ89wyb8ua00JymdKVKU8cYMJVodq+rqvW2hYTj021d0XuspKrTCG37N4939hYsmJoQmB0BPGAmdc950umOVpNQm1R71pXS1NQ3joxoEU+b8qjjWdqOFhl/ss7SJD5zm+VQEtVejqHlqpoh6Csh6s8qaGFuDUMPG39+R4SxOqe88tpi26ahB4HsTqjHKuVc+gghuU4rqSEnvPkljSzhEEoeuBlEYJ4w1ykDc3Yu/49ckhKsPKmMy0Ry2IfD2HxPm37S6nNpjQ/4rxegniBsIC7cxlr+nLFyOsorRGrZiPvbJI1orXq/DeZIwSJDBjly0bdzgrvzJAP3WVLuefIrbezijpmz/EQ3hVJr7wR81bmCEFawp13ynFnHiCv17Znn7/eZNnRGsnFe0aSyLSuh6R4P3Dr9iGdKEG06budHbuX7t6UCO1aors3iuC9LUd9o2MgqadFj24XNNwZLkqQ0QO4Xk62+nsizqzZJhJFhCQgoPcmlWh70iY649oTwcjsF1GC9Ay7ZmE3LBhxLsskSotTyZWjMp17HQPJOBOr+Eh1WsadWvQIrY57/ChKELSh9VQeOVj2HoFImmWxi3cWSbOPkKSFDHdtWBYsvVcIabr85e8tBGEUcUEdLuzp7S3RA4L0JkhYOaWiZawbibJmeVsIIjli7dO8ZkFYsIiAxwEsi2nD05KOtrREQzTn6URc4rUSBI1FF65cgm5c2Jpmafm6QNhlfeAhe1izFCtGbrF7EEQiieUuJLeArPAJAUsPacnXZcF2JVitU8wWjNx69yKINCzTgJ4b9txCb1hBW2DTFtNWSqtK5tXSrSUIciaK7Oy0rPBu6PNulWsOoBHEM45xC/ZQBU3HIalj7whSwuocUVYiDE7lYWbI+nhusq/d4YScGlsmzk9tTUFbQddmrWSXsGwFwhrGE0el0S5wwCNt1qaKnzyb/0mopwhidbBs5bRe6yqvB8/amCHS40evuykN7kEQyDGCKKU20QnUPtnW9cYSi7N5DGp539vKrESQWu9a+5yCtpUDBLH07prt5UtYWkQuyapFyUinosnMCKIgtBJBtEHsdVOf5nB30HijCvDD3q3z13BVp7y5bNsi61KDdAsIK5RZiSDWVXTrZc81+1gugrCuy5TakdTOMmYdNkvHFKtO05UIAk0sWzN6dUy1lMaLW6tMQ9IrDtJ1s3gN7elweg/SoY0lFdG1tpWorV63Rg+bBH+UGhY9SBDdDKsRBBo95Zw1x9TGQzry9hLaFLb9TTclPT1eU0OLVl6RIIA66qBweqQrskZTO+9eiyCW8dD5VkTPufqzKw0lByOIztpVCQLNvFcE3eXx0YU5LdW7dsxeQg/bnHh1CUaQdw3S77TRbj+pfaat5rjRMUgpNbPuCh8eNc4gkiDvJ8hZw/N6hKQ4NQS0VKm09hBZtBQ5ZFoXsmKrzy8fA3GLvHpO4CxBguxFEKd7qLNiiAbnLfSWremPRgCvwkyxfIitPAbxaVoubV1bAVm0wfbQKdleCjPFsiNJgvzh9D2OVYMcQy9YsJvVXpIpFlMsi7f0WFtZKrUSUEgQEsRCEJSJkuQ6TrG2l6IcCUKCeBwRJKkd9Lq+a9geKY/QLWVJEBIk4j9yElAG5fIbaypTp2UjytTqkCAkSG+fetX7SBAS5FUO3VsZEoQE6e1Tr3rfbgTRzkPfGRf7kayP56OUtc8IyDlwa7u1cnJTSe+LpXvIlv4duxAkOkWZ3oAOAb3nyR2vfm/RHQiiXcn5Xuvea7b81OuTBns7QRg57r1pyA0gTzruU229nSCWzwE8hXWmdrS7fjPJOlWWNxPEu9FwqiEebvyxE3kP69W9uTcTRDv22R3MhV643LbzWdi+mSDA1HqWYRb+s9plBDEi/3aCcAaLM1lGKtwXeztBeh32aQI5WWWmVw6DvJ0ggMJ6W4YDtmWLWu7UXVa5EYLvQBDghkgi1+9r56ZH4Dz7nfJBHkzv8nEgsAtBHJCwKBH4PwIkCL2BCFQQIEHoHkSABKEPEIEYAowgMdxYaxMESJBNDE01YwiQIDHcWGsTBEiQTQxNNWMIkCAx3FhrEwRIkE0MTTVjCJAgMdxYaxMESJBNDE01YwiQIDHcWGsTBEiQTQxNNWMIkCAx3FhrEwRIkE0MTTVjCJAgMdxYaxMESJBNDE01YwiQIDHcWGsTBEiQTQxNNWMIkCAx3FhrEwRIkE0MTTVjCJAgMdxYaxMESJBNDE01YwiQIDHcWGsTBEiQTQxNNWMI/Aa9QKL2GyzFaAAAAABJRU5ErkJggg==;" parent="1" vertex="1">
          <mxGeometry x="450" y="139" width="80" height="80" as="geometry" />
        </mxCell>
        <mxCell id="1Eo275UsJVI7hxTcHDXu-25" value="&lt;font face=&quot;Times New Roman&quot; style=&quot;color: rgb(0, 0, 0);&quot;&gt;&lt;i&gt;&lt;b&gt;2. SUT Operating Dynamically&lt;/b&gt;&lt;/i&gt;&lt;/font&gt;" style="text;html=1;align=center;verticalAlign=middle;resizable=0;points=[];autosize=1;strokeColor=none;fillColor=none;fontColor=#143642;" parent="1" vertex="1">
          <mxGeometry x="400" y="230" width="180" height="30" as="geometry" />
        </mxCell>
        <mxCell id="1Eo275UsJVI7hxTcHDXu-31" style="edgeStyle=orthogonalEdgeStyle;rounded=0;orthogonalLoop=1;jettySize=auto;html=1;strokeColor=#000000;fontColor=#143642;fillColor=#FAE5C7;curved=1;entryX=0.009;entryY=0.733;entryDx=0;entryDy=0;entryPerimeter=0;" parent="1" edge="1">
          <mxGeometry relative="1" as="geometry">
            <mxPoint x="449.99999999999994" y="78.00000000000001" as="targetPoint" />
            <mxPoint x="690" y="140" as="sourcePoint" />
            <Array as="points">
              <mxPoint x="690" y="78" />
            </Array>
          </mxGeometry>
        </mxCell>
        <mxCell id="1Eo275UsJVI7hxTcHDXu-26" value="" style="shape=image;verticalLabelPosition=bottom;labelBackgroundColor=default;verticalAlign=top;aspect=fixed;imageAspect=0;image=data:image/png,iVBORw0KGgoAAAANSUhEUgAAAMgAAADICAYAAACtWK6eAAAAAXNSR0IArs4c6QAADMNJREFUeF7tnQ+W1DYMh4eTtD1J4STASaAnKZyEcpKWk9DVbsLOzO5M/EeSJfvLe7xdIHHsn/VFku04b04cKIACNxV4gzYogAK3FQAQrAMF7igAIJgHCgAINoACbQrgQdp046pFFACQRTqaZrYpACBtuvVe9fZ0Ov2+FSI/f9t+l3//b/tdfv7Y/n7+b/vvvXXg+gIFAKRAJKVTPpxOp/en00kg6Dn+OZ1OXx/KkZ/A0qNkwbUAUiBS4ym7l/h05i0ai7p5mUDy/aH8L8CiLe1TeQCir6uAIVD0eoramgksHwGlVrb75wOInp6SS/w9AIzrFog3+QtQdDoWQHR0FDAkx4h0AIpCbwBIn4gSRn3rK8L8agm7BBaOBgUApEG07ZLPW67RXoLflRJySX05KhUAkErBttPFa3gn4W01fb6KkKtBQQCpEy1KIl5X6+ezGemqVA5AygXLkG+UtEYmF98xylUiFfMgZSo9LQv5t/TkBOcBSWEn4UHKhMqYcxy1DEiOFGImvUChp2HcbAl5UcO2CUVGt+6ohQe5b0qZhnJLobg+jyFgAGmynVmS8pLGM5l4QyU8yOvCzJaUH0FCPgIgRzZy8f8rhFaEWgUmgQd5KdJq3uNcgT+YH7k0CAB5CciK3mNXgYT9yh4A5FKQlb3HrgRe5MwmAOQSkIjvdRREyqqnyKJGGdXiYKLwwgbwHs9y4EU2LfAgz0axcu5x7S2YFwGQFxHEzEtKasMlwiwAIbw6oIYwixzkl4mstKyk1JsQZgHIL1sh/3iJDWHWIED2/WcjbZv5s/Sxuth50QZx3G3HSwB5Qsu+tPuGzWJnAojsMTt620yGd29THyEP2TfjO7cdt/2JrQEp2eRAQJF4Vxo94gCQmICItxA4zsG4rqn5JhTWgMh73PcaeN7gUUkhCfptQGRzhxEPrpo+MV2qbwlIS+I7AhLZMlSeVBwvFRjRHzVw7DU2W2RpBUhP2OLdKS0grwKTd1+0wLH3hUm+ZAVIT0OlwZ4dAyC3cfcc6u21GZNw0AoQDaPzgiTCJwuieiQZZfTY9aQXDrOHqhUgWnG9FyRRDXSFemnAITqZ5CFWgGg12uzJsILlJWijpp2kCrGkb2qGeI/6Ek9ypFC+/9eEQ4Z6JUlXP6w8iFRUIw+JME+iLjoFPu5UqfnhIZPwSvrJEhApX/sdCzxJfrq04ZCJTAmvTA5rQLRDLXISEzNwKzQVHB4eZFdeMx8BEjd7Vr1ROjg8AcGTqNpausJSwuENCJCks2uVCqeFYwQgQKJic2kKSQ3HKECAJI19d1U0PRwjAQGSLtsLf/EUcIwGBEjC23lTBaeBIwIgQNJkg2EvmgqOKIBYQBJpx5Sw1mxQsdLXq0tubTpDXlKBSIBYQFKqAefFUyAEHNEAAZJ4hjqiRmHgiAgIkIwwyTj3DAVHVECAJI7BetYkHByRAQEST9Mcf6+QcEQHBEjGG65HDcLCkQEQIPEw0XH3CA1HFkCAZJwBW945PByZAAESS1P1LzsFHNkA6dnO1N8EuOM9BUy2CbWQ3OOddK16A4iWkuPLARCDPgAQA1EHFQkgBsIDiIGog4oEEAPhZwFEVhrLRmctx6eKDxK1lO91DYAYKD0TIK3bZGpvn2TQTUVFAkiRTHUnAYjufsd16uueDSC6ej6WBiAAYmBW94tkmNdd8sfPXxNiPX0GPPwBIP5dBCBPDwgAUbY9QixCLGWTOi4OD3KskfYZeBA8iLZNkaRvijLMa2JatwvFgzgLvsXeJOnkIOqWRw5CDqJuVEcF4kGOFNL/f3IQchB9q2Ki8FFTchAT0yIHcZb17u3wIHgQE3skB8GDmBjWvULJQdwlZ6nJttSGmXRl28OD4EGUTeq4ODzIsUbaZ5CDkINo2xQz6cykm9jUYaF4kEOJ1E/Ag+BB1I1KCiQHIQcxMSxGsdxlZR7kQHLeBzGwSTwIHsTArO4XSQ7iLjnzIMyD2BgdHgQPYmNZd0rFg7hLjgfBg9gYHR4ED2JjWXgQd13v3ZB5EOZBTAwSD4IHMTEsq3kQMVjZTFmOt5NsquzRAXgQD5Wf7iFfsvr+YJtfWvfhak3SP5xOp7/92jnVnQBkTHd+3ECpunsLIJ/PPEfVzTj5UQEAGWcI8tkJsd/ioxaQWfKAYoEMTgQQA1Eriqxa5lILiIRVEl5xtCsAIO3aaVxZ9YXdWkB+atRw8TIAZLwBFNt98YkTLTcf3T0AMroHKuZhagCRodxv49uWvgYAMr4L321DwIc1qQFECptl47JDYQxPABBDcQuLLrb74hO3GwNIYQ/cOQ1A+jXsKaFK/1pAmAPp6Zqna6s66Op2PKD69S8Or+RWtYDINUDS10kA0qdfz9Wy5ERm1IuPFkCkcOZDiiV+cSKAtGvXc2U1HK0eZK+kjGrJYkWZXZc/HGUKAEiZTlpnycSgLDGRn9VHqwe5vpHAYn0IhDMskASQpzDHem9eKb/7HlqAWMMh5c+yDgxA2nJfDxt7cY9MgEjlZ1jqAiAAYgY7gMyR76V5MKep6IbcDPMAq3uQnvabPXlvFQwg7pIvP1EIIIY2hwfJH2IBiCEgsprYY0jZsAnLe5CqF5YsO6Kk7GwhFoDk9yAAUkJm4zkzLHHpCTFmCDGblnw02kv3Zdk8CIDk9yDVO4t0W3lHAdkAmWE/rtU9SNP+VB023nVpNkBmeO13dUCq3sfosm6Fi7MBMsNyk9UBSWVzqSo7yWz6yoD0tF3BH9QXkRGQ7EO9PUaSfRQr1QiW4JQRkOwjWSsDkmoEKysg2UeyVgYkVYKeFZDsifrKgKSLWNJVeIJEfVVAetpdn10rXZEVkMxbD/UYSuYkPV3+kTnEyjxhuCog6fKPzIBI3bM+TVcEpKfNSsFSWzFZQyxpbdbh3h5jyfpQSBleZfcgWYd7VwQkZXiVHZCsYdZqgPS0ty0uUrwqc4glMmQczeoxmIwhVtrwagYPIrstytqsTHsDrwZI1VdlFR/+KkVl9yAZk/WVAEntPWbwINKGbHMiKwGS2nvMAki2ZH0VQFLtXnIrHpshxMKDqETb6oWk9x4zeJCMn0RYwYP0tFGd1J4CM3uQjHBIX/UYT6Zh3vQJemYPsn9tKuM2pKsAIvaVHpKsHiTze+krAZIekoyAZIZjpRDrPPRP60myAZJ1Be+5sazmQfa2p4QkEyAZ1129NoCyKiApw60sgGSb67g3srgyIOkgyQDITHCsmoNcPzDShFvRAck614EHOZ6dSwFJZEC04ZDQJsKy+NVDrFSjW1EB0Z4IlFc+96XxoyEBkEvvEtqTRAVEc67j/H3oCC9YZQdE9JThds0HTVhIIgKiCcdrXzPS9k7H0fblGVkBkeXroqfUXw7tdWEhIYkGiOZE4NFW+zKv8l75SVgCS0ZAbmk5PSSRANGcCCx9WUeGkLXDhSNIsgFytGXP1JBEAURzj6tSOM4NWSARWDTj6lugZAHkyAOft29aSCIAojkR2GN8Xt6kp47ahnhrKYzkGvKgqTm06xYiJxkNiOZcR4/hnRuCeLNPht6kp57aRqg9w61dv+GQjAREEw7p6KNYueZpuM+ZWIRdEQHRNMSpIBkFiPZQqzYclvlJJEA0wZgyJxkFiOZchyUc16GXDAv3vuY7GhDJLb4+hJCShFsemkP2Uk8rmO9qMAIQTThGiCaA7KC0jHqNAkSAEL32iT5LOPay00PiDYimYDXDkFbGILDInz+3pL4EGC9Adg8h3qJ2REpTL80+d/cknoCMmAjU7OiSsq6BkWuuobEARMoUCH5sHsI6fCrR4jqPk9FBreO1JURaZV+U4wnIT6UWtEwEKt26uRiBZAdFfrYa8G5kAsQeKnmGTM0CGHwRzGXnRi9AtLxHz9O3p3O5VkcBzXDLJf/0AkQjMRc4WmZ4dbqWUrQU0ILEJZLwAkRj8shrOFfLECjntgJakJjbr/kNNo16AQGO+XDrhcQl3PYCpCfEchuxmM8Gw7eoB5KpAGlN0l0SsfBmNHcFWyFxsQ0vD9LyLrhLEja37aVpXS0kLt5D1PMCRO5V40WAI41tq1W0BhK3nNQTkB2So/fAXVynWrdSkKYCR/sEuA/1ewMiYkq4JS8k7ati9xlmmV0evW5Is7Mpq00BsYv9hbXdNvalNDJg43qMAOS6gSJCluUSrp3DzR4fpkNtIwIg2AEKhFUAQMJ2DRWLoACAROgF6hBWAQAJ2zVULIICABKhF6hDWAUAJGzXULEICgBIhF6gDmEVAJCwXUPFIigAIBF6gTqEVQBAwnYNFYugAIBE6AXqEFYBAAnbNVQsggIAEqEXqENYBQAkbNdQsQgKAEiEXqAOYRUAkLBdQ8UiKAAgEXqBOoRV4H/8LNXn4wZiRQAAAABJRU5ErkJggg==;" parent="1" vertex="1">
          <mxGeometry x="660" y="148.5" width="61" height="61" as="geometry" />
        </mxCell>
        <mxCell id="1Eo275UsJVI7hxTcHDXu-29" value="&lt;font face=&quot;Times New Roman&quot;&gt;&lt;i&gt;&lt;b&gt;3. Trigger Exception&lt;/b&gt;&lt;/i&gt;&lt;/font&gt;" style="text;html=1;align=center;verticalAlign=middle;resizable=0;points=[];autosize=1;strokeColor=none;fillColor=none;fontColor=#143642;" parent="1" vertex="1">
          <mxGeometry x="635" y="230" width="130" height="30" as="geometry" />
        </mxCell>
        <mxCell id="gu6hibSf5MbbUp2p4uYq-5" style="edgeStyle=orthogonalEdgeStyle;rounded=0;orthogonalLoop=1;jettySize=auto;html=1;strokeColor=#000000;fontColor=#143642;fillColor=#FAE5C7;" edge="1" parent="1">
          <mxGeometry relative="1" as="geometry">
            <mxPoint x="380.00036855036853" y="168.23" as="targetPoint" />
            <mxPoint x="380.0017241379311" y="117.76292626559955" as="sourcePoint" />
          </mxGeometry>
        </mxCell>
        <mxCell id="gu6hibSf5MbbUp2p4uYq-9" value="&lt;i style=&quot;color: rgb(0, 0, 0); font-family: &amp;quot;Times New Roman&amp;quot;;&quot;&gt;&lt;b&gt;4. Feedback and Regenaration Cases&lt;/b&gt;&lt;/i&gt;" style="text;html=1;align=center;verticalAlign=middle;resizable=0;points=[];autosize=1;strokeColor=none;fillColor=none;fontColor=#143642;" vertex="1" parent="1">
          <mxGeometry x="495" y="48" width="210" height="30" as="geometry" />
        </mxCell>
        <mxCell id="gu6hibSf5MbbUp2p4uYq-10" style="edgeStyle=orthogonalEdgeStyle;rounded=0;orthogonalLoop=1;jettySize=auto;html=1;strokeColor=light-dark(#000000,#2566A8);fontColor=#143642;fillColor=#FAE5C7;" edge="1" parent="1">
          <mxGeometry relative="1" as="geometry">
            <mxPoint x="641.63" y="188.16000000000003" as="targetPoint" />
            <mxPoint x="558.38" y="188.08" as="sourcePoint" />
          </mxGeometry>
        </mxCell>
      </root>
    </mxGraphModel>
  </diagram>
</mxfile>
